<svg xmlns="http://www.w3.org/2000/svg" viewBox="0 0 512 512" role="img"><title>WoTEx</title><rect width="512" height="512" fill="#1b1b1b"/><svg x="92" y="92" width="328" height="328"
  xmlns="http://www.w3.org/2000/svg"
  xmlns:xlink="http://www.w3.org/1999/xlink"
  width="1077"
  height="765"
  viewBox="-30 -36 359 255"
  role="img"
  aria-label="Wotex Carbon fold"
>
  <title>Wotex 08 / Carbon fold</title>
  <desc>
    Original Wotex path preserved exactly. Graphite / silver. All colour planes are clipped inside
    the original silhouette. Transparent background. Flat vector gradients; no extrusion, shadows,
    filters, or bitmap artwork.
  </desc>
  <defs>
    <path
      id="w08-source"
      d="M204,161L245.7,201.8C248.6,204.6 249.8,208.2 249.1,212.3L231,301L312,161L353.8,202.2C356.8,205.1 358,209.1 357.2,213.4L339,300L420,161L459.6,199.7C463.9,203.9 464.9,209.8 461.9,214.9L390.5,339.1C388.2,343.1 383.1,345.2 378.2,342.8L316,281L282.9,339.1C280.8,342.7 277.3,344.4 273.3,343.9C271.5,343.7 269.8,342.8 268.3,341.3L168.9,241.6C164.7,237.6 163.8,232 166.6,227L204,161Z"
      fill-rule="nonzero"
    />
    <clipPath id="w08-clip" clipPathUnits="userSpaceOnUse">
      <use href="#w08-source" xlink:href="#w08-source" />
    </clipPath>
    <linearGradient
      id="w08-flow"
      gradientUnits="userSpaceOnUse"
      x1="180"
      y1="320"
      x2="446"
      y2="184"
    >
      <stop offset="0" stop-color="#d6d5d1" />
      <stop offset="0.44" stop-color="#cdccc8" />
      <stop offset="0.76" stop-color="#d8d7d3" />
      <stop offset="1" stop-color="#e0dfdb" />
    </linearGradient>
    <linearGradient
      id="w08-rear1"
      gradientUnits="userSpaceOnUse"
      x1="201"
      y1="163"
      x2="253"
      y2="337"
    >
      <stop offset="0" stop-color="#cac9c5" />
      <stop offset="0.45" stop-color="#cdccc8" />
      <stop offset="1" stop-color="#d6d5d1" />
    </linearGradient>
    <linearGradient
      id="w08-rear2"
      gradientUnits="userSpaceOnUse"
      x1="336"
      y1="215"
      x2="361"
      y2="343"
    >
      <stop offset="0" stop-color="#cac9c5" stop-opacity="0.83" />
      <stop offset="1" stop-color="#e0dfdb" stop-opacity="0.96" />
    </linearGradient>
    <linearGradient
      id="w08-front1"
      gradientUnits="userSpaceOnUse"
      x1="253"
      y1="338"
      x2="332"
      y2="178"
    >
      <stop offset="0" stop-color="#d6d5d1" />
      <stop offset="0.57" stop-color="#cdccc8" />
      <stop offset="1" stop-color="#cac9c5" />
    </linearGradient>
    <linearGradient
      id="w08-front2"
      gradientUnits="userSpaceOnUse"
      x1="362"
      y1="345"
      x2="442"
      y2="180"
    >
      <stop offset="0" stop-color="#e0dfdb" />
      <stop offset="0.53" stop-color="#d8d7d3" />
      <stop offset="1" stop-color="#d8d7d3" />
    </linearGradient>
    <linearGradient
      id="w08-veil"
      gradientUnits="userSpaceOnUse"
      x1="214"
      y1="317"
      x2="421"
      y2="175"
    >
      <stop offset="0" stop-color="#e4e3df" stop-opacity="0" />
      <stop offset="0.52" stop-color="#e4e3df" stop-opacity="0.35" />
      <stop offset="1" stop-color="#e4e3df" stop-opacity="0.04" />
    </linearGradient>
  </defs>
  <g id="w08-artwork" opacity="1" transform="translate(-164.988448 -161)">
    <use href="#w08-source" xlink:href="#w08-source" fill="url(#w08-flow)" />
    <g clip-path="url(#w08-clip)">
      <path
        id="w08-left-return"
        d="M150 150H204V161L245.7 201.8C248.6 204.6 249.8 208.2 249.1 212.3L231 301L273.3 343.9L150 346Z"
        fill="url(#w08-rear1)"
      />
      <path
        id="w08-middle-return"
        d="M357.2 213.4L339 300L378.2 342.8L316 281Z"
        fill="url(#w08-rear2)"
      />
      <path
        id="w08-middle-face"
        d="M231 301L312 161L353.8 202.2C356.8 205.1 358 209.1 357.2 213.4L282.9 339.1C280.8 342.7 277.3 344.4 273.3 343.9Z"
        fill="url(#w08-front1)"
        opacity="1"
      />
      <path
        id="w08-right-face"
        d="M339 300L420 161L480 180V355H380Z"
        fill="url(#w08-front2)"
        opacity="1"
      />
    </g>
  </g>
</svg>
</svg>